<?xml version="1.0" encoding="UTF-8"?><svg id="a" xmlns="http://www.w3.org/2000/svg" viewBox="0 0 226.27 106.22"><defs><style>.b{fill:#21202b;}</style></defs><g><path class="b" d="M10.94,72.36c1.67,0,3.07,.21,4.2,.63s2.2,1.04,3.21,1.86l-1.8,2.1c-.81-.68-1.66-1.17-2.55-1.46-.9-.29-1.84-.44-2.81-.44-1.4,0-2.69,.33-3.88,.99s-2.15,1.76-2.87,3.29-1.09,3.6-1.09,6.21,.34,4.58,1.03,6.11c.69,1.54,1.62,2.64,2.8,3.32,1.18,.68,2.49,1.02,3.94,1.02s2.62-.22,3.54-.65c.92-.43,1.72-.93,2.41-1.49l1.67,2.12c-.78,.75-1.8,1.41-3.05,1.96-1.25,.55-2.79,.83-4.61,.83-2.07,0-3.94-.51-5.62-1.52s-3.01-2.5-3.98-4.47c-.98-1.96-1.47-4.37-1.47-7.24s.5-5.29,1.5-7.24c1-1.96,2.33-3.44,3.99-4.44,1.67-1,3.48-1.5,5.45-1.5Z"/><path class="b" d="M32.02,78.38c1.85,0,3.39,.42,4.63,1.25s2.18,2.02,2.8,3.54c.62,1.52,.94,3.32,.94,5.39s-.32,3.76-.97,5.29c-.64,1.54-1.59,2.74-2.83,3.61s-2.78,1.31-4.62,1.31-3.38-.42-4.62-1.26c-1.25-.84-2.2-2.03-2.83-3.56s-.96-3.32-.96-5.36,.32-3.8,.97-5.33c.64-1.54,1.59-2.73,2.85-3.59,1.26-.86,2.8-1.29,4.63-1.29Zm0,2.54c-1.68,0-2.96,.62-3.82,1.87-.86,1.24-1.29,3.18-1.29,5.8s.42,4.49,1.27,5.74,2.11,1.88,3.8,1.88,2.95-.62,3.8-1.88c.85-1.25,1.27-3.18,1.27-5.78s-.42-4.52-1.26-5.77c-.84-1.25-2.1-1.87-3.77-1.87Z"/><path class="b" d="M60.21,70.52l3.12,.39v27.44h-2.73l-.3-2.58c-.73,1.04-1.57,1.8-2.52,2.29-.95,.48-1.96,.72-3.04,.72-1.7,0-3.1-.43-4.2-1.28-1.1-.85-1.92-2.05-2.45-3.58s-.8-3.3-.8-5.32,.3-3.71,.91-5.25c.61-1.54,1.48-2.75,2.63-3.64,1.15-.88,2.52-1.33,4.13-1.33,1.13,0,2.12,.2,2.97,.58,.85,.39,1.61,.96,2.27,1.72v-10.16Zm-4.42,10.37c-1.63,0-2.89,.64-3.77,1.91-.88,1.28-1.32,3.21-1.32,5.8,0,1.68,.18,3.1,.54,4.24,.36,1.14,.89,1.99,1.59,2.56,.7,.57,1.56,.85,2.57,.85,1.11,0,2.06-.32,2.85-.95,.79-.63,1.44-1.34,1.96-2.14v-9.77c-.53-.79-1.18-1.41-1.93-1.85-.76-.44-1.59-.66-2.49-.66Z"/><path class="b" d="M74.45,89.67c.06,1.51,.35,2.75,.87,3.71,.52,.96,1.21,1.67,2.06,2.12,.85,.45,1.78,.68,2.79,.68s1.91-.15,2.72-.45c.81-.3,1.64-.74,2.5-1.32l1.47,2.06c-.92,.72-1.96,1.28-3.13,1.69-1.17,.41-2.37,.61-3.59,.61-1.89,0-3.51-.43-4.85-1.28-1.34-.85-2.36-2.05-3.06-3.58-.7-1.53-1.05-3.3-1.05-5.32s.35-3.74,1.06-5.28,1.7-2.74,2.97-3.62c1.28-.88,2.78-1.32,4.51-1.32s3.06,.39,4.25,1.16c1.19,.77,2.1,1.88,2.74,3.31,.64,1.43,.96,3.14,.96,5.12,0,.33,0,.65-.02,.94-.01,.29-.03,.55-.06,.77h-13.15Zm5.31-8.73c-1.45,0-2.66,.51-3.63,1.54-.97,1.03-1.53,2.62-1.66,4.77h10.2c-.04-2.09-.5-3.67-1.37-4.73-.88-1.06-2.06-1.59-3.53-1.59Z"/><path class="b" d="M111.5,91.05c0,1.39-.28,2.55-.83,3.49s-1.29,1.69-2.21,2.25c-.92,.56-1.95,.96-3.08,1.2-1.13,.24-2.29,.36-3.46,.36h-6.87v-25.58h6.3c1.13,0,2.23,.1,3.3,.31,1.07,.2,2.04,.55,2.9,1.04,.86,.49,1.55,1.15,2.07,1.98,.52,.83,.78,1.87,.78,3.12,0,1.1-.23,2.03-.68,2.8s-1.04,1.37-1.76,1.83c-.72,.46-1.5,.78-2.31,.97,.95,.15,1.88,.44,2.78,.86,.9,.43,1.64,1.07,2.22,1.93,.58,.86,.87,2.01,.87,3.45Zm-4.42-11.67c0-1.45-.45-2.48-1.35-3.09-.9-.61-2.12-.92-3.67-.92h-3.81v8.28h4.12c1.51,0,2.67-.34,3.48-1.01,.81-.67,1.22-1.76,1.22-3.26Zm1.02,11.78c0-1.29-.25-2.28-.75-2.98-.5-.7-1.17-1.19-2-1.46-.83-.27-1.74-.41-2.73-.41h-4.37v9.38h4.22c.63,0,1.28-.06,1.93-.19s1.27-.35,1.83-.67c.56-.32,1.01-.78,1.36-1.37,.34-.59,.51-1.36,.51-2.31Z"/><path class="b" d="M121.63,78.79v13.86c0,1.29,.27,2.22,.8,2.79,.53,.57,1.36,.85,2.49,.85s2.1-.31,3.06-.92c.96-.61,1.71-1.34,2.24-2.18v-14.4h3.12v19.56h-2.66l-.26-2.64c-.77,.99-1.71,1.75-2.84,2.28s-2.27,.79-3.42,.79c-1.89,0-3.31-.5-4.25-1.51-.93-1.01-1.4-2.42-1.4-4.24v-14.23h3.12Z"/><path class="b" d="M141.39,98.35v-2.4h3.05v-14.77h-3.05v-2.4h5.42l.58,4.62c.76-1.61,1.67-2.85,2.75-3.73,1.08-.88,2.5-1.32,4.27-1.32,.54,0,1.03,.04,1.46,.12,.43,.08,.86,.18,1.31,.31l-.91,2.79c-.41-.11-.78-.2-1.12-.25-.33-.06-.72-.08-1.15-.08-1.5,0-2.79,.53-3.86,1.6-1.08,1.07-1.94,2.67-2.58,4.83v8.28h3.97v2.4h-10.14Zm12.78-12.95v-4.25l.32-2.36h2.69l-.45,6.61h-2.56Z"/><path class="b" d="M180.65,76.71l.97,2.94c-.83,.26-1.72,.42-2.66,.48-.94,.06-1.96,.09-3.07,.09,1.13,.52,1.98,1.19,2.54,2.02,.57,.82,.85,1.79,.85,2.91,0,1.29-.29,2.43-.87,3.44s-1.42,1.79-2.52,2.36c-1.1,.57-2.42,.85-3.97,.85-.66,0-1.21-.03-1.64-.09-.44-.06-.86-.16-1.27-.28-.3,.2-.54,.47-.73,.82-.19,.35-.29,.71-.29,1.08,0,.47,.19,.86,.56,1.17,.37,.31,1.06,.46,2.06,.46h3.53c1.31,0,2.49,.24,3.54,.71,1.05,.47,1.87,1.1,2.47,1.89,.6,.79,.9,1.7,.9,2.71,0,1.92-.81,3.39-2.44,4.42-1.63,1.03-3.93,1.54-6.9,1.54-2.08,0-3.72-.21-4.92-.64-1.2-.43-2.06-1.08-2.57-1.95s-.77-1.97-.77-3.3h2.82c0,.75,.15,1.38,.45,1.88,.3,.5,.84,.86,1.62,1.1,.78,.24,1.9,.36,3.36,.36s2.61-.12,3.52-.36c.91-.24,1.58-.6,2.02-1.08s.66-1.07,.66-1.77c0-.93-.42-1.63-1.26-2.1s-1.89-.71-3.16-.71h-3.49c-1.68,0-2.93-.37-3.72-1.11-.8-.74-1.2-1.6-1.2-2.56,0-.63,.18-1.24,.55-1.84s.9-1.12,1.61-1.58c-1.13-.59-1.96-1.33-2.49-2.21-.53-.88-.8-1.94-.8-3.2,0-1.33,.33-2.5,.99-3.52,.66-1.02,1.57-1.82,2.75-2.41,1.18-.58,2.53-.87,4.07-.87,1.65-.01,2.98-.08,4.01-.21,1.03-.13,1.91-.32,2.65-.57,.74-.25,1.49-.54,2.26-.87Zm-8.92,3.94c-1.57,0-2.73,.42-3.48,1.27-.75,.85-1.12,1.93-1.12,3.24s.38,2.42,1.15,3.27c.77,.85,1.94,1.28,3.53,1.28,1.39,0,2.44-.4,3.17-1.21,.72-.8,1.09-1.93,1.09-3.36s-.36-2.59-1.09-3.35c-.72-.76-1.81-1.14-3.24-1.14Z"/><path class="b" d="M190.11,89.67c.06,1.51,.35,2.75,.87,3.71,.52,.96,1.21,1.67,2.06,2.12,.85,.45,1.78,.68,2.79,.68s1.91-.15,2.72-.45c.81-.3,1.64-.74,2.5-1.32l1.47,2.06c-.92,.72-1.96,1.28-3.13,1.69-1.17,.41-2.37,.61-3.59,.61-1.89,0-3.51-.43-4.85-1.28-1.34-.85-2.36-2.05-3.06-3.58s-1.05-3.3-1.05-5.32,.35-3.74,1.06-5.28c.71-1.54,1.7-2.74,2.97-3.62,1.28-.88,2.78-1.32,4.51-1.32s3.07,.39,4.25,1.16c1.19,.77,2.1,1.88,2.74,3.31,.64,1.43,.96,3.14,.96,5.12,0,.33,0,.65-.02,.94-.01,.29-.03,.55-.06,.77h-13.15Zm5.31-8.73c-1.45,0-2.66,.51-3.63,1.54-.97,1.03-1.53,2.62-1.66,4.77h10.2c-.04-2.09-.5-3.67-1.38-4.73-.88-1.06-2.06-1.59-3.53-1.59Z"/><path class="b" d="M210.48,98.35v-2.4h3.05v-14.77h-3.05v-2.4h5.42l.58,4.62c.76-1.61,1.67-2.85,2.75-3.73,1.08-.88,2.5-1.32,4.27-1.32,.54,0,1.03,.04,1.46,.12,.43,.08,.86,.18,1.31,.31l-.91,2.79c-.41-.11-.78-.2-1.12-.25-.33-.06-.72-.08-1.15-.08-1.5,0-2.79,.53-3.86,1.6-1.08,1.07-1.94,2.67-2.58,4.83v8.28h3.97v2.4h-10.14Zm12.78-12.95v-4.25l.32-2.36h2.69l-.45,6.61h-2.56Z"/></g><g><polygon class="b" points="151.64 12.3 129.9 58.72 132.97 58.72 154.74 12.3 151.64 12.3"/><polygon class="b" points="73.61 22.18 58.13 31.74 55.08 33.63 55.08 37.41 73.37 48.88 75.18 46.63 57.65 35.57 75.18 24.66 73.61 22.18"/><polygon class="b" points="154.99 22.18 153.17 24.44 170.7 35.5 153.17 46.41 154.74 48.88 170.22 39.32 173.27 37.44 173.27 33.65 154.99 22.18"/><path class="b" d="M129.16,21.88c0-12.07-9.82-21.88-21.88-21.88h-4.79c-12.07,0-21.88,9.82-21.88,21.88v3.61h48.56v-3.61Zm-2.43,1.18h-43.69v-1.18c0-10.72,8.72-19.45,19.45-19.45h4.79c10.72,0,19.45,8.72,19.45,19.45v1.18Z"/><path class="b" d="M80.6,47.44c0,6.28,5.11,11.39,11.39,11.39h25.77c6.28,0,11.39-5.11,11.39-11.39v-1.22h-48.56v1.22Zm46.04,1.22c-.6,4.37-4.35,7.74-8.87,7.74h-25.77c-4.53,0-8.28-3.37-8.87-7.74h43.52Z"/><path class="b" d="M88.58,32.81c2.39,0,3.64-.81,4.73-1.52,.97-.63,1.73-1.13,3.4-1.13s2.43,.5,3.4,1.13c1.1,.71,2.34,1.52,4.73,1.52s3.64-.81,4.73-1.52c.97-.63,1.73-1.13,3.4-1.13s2.44,.5,3.41,1.13c1.1,.71,2.34,1.52,4.73,1.52s3.64-.81,4.74-1.52c.97-.63,1.73-1.13,3.41-1.13v-2.43c-2.4,0-3.64,.81-4.73,1.52-.97,.63-1.73,1.13-3.41,1.13s-2.44-.5-3.41-1.13c-1.1-.71-2.34-1.52-4.73-1.52s-3.64,.81-4.73,1.52c-.97,.63-1.73,1.13-3.4,1.13s-2.43-.5-3.4-1.13c-1.1-.71-2.34-1.52-4.73-1.52s-3.64,.81-4.73,1.52c-.97,.63-1.73,1.13-3.4,1.13s-2.43-.5-3.4-1.13c-1.09-.71-2.34-1.52-4.73-1.52v2.43c1.67,0,2.43,.5,3.4,1.13,1.09,.71,2.34,1.52,4.73,1.52Z"/><path class="b" d="M127.73,43.65c2.35,0,4.26-1.91,4.26-4.26s-1.91-4.26-4.26-4.26h-46.05c-2.35,0-4.26,1.91-4.26,4.26s1.91,4.26,4.26,4.26h46.05Zm-47.87-4.26c0-1.01,.82-1.82,1.82-1.82h46.05c1.01,0,1.83,.82,1.83,1.82s-.82,1.83-1.83,1.83h-46.05c-1.01,0-1.82-.82-1.82-1.83Z"/><path class="b" d="M97.49,6.31c-.23-.42-1.05-.41-1.81,.02s-1.2,1.12-.96,1.54c.23,.42,1.05,.41,1.81-.02,.77-.43,1.2-1.12,.96-1.54Z"/><path class="b" d="M92.36,9.74c-.32-.35-1.11-.16-1.76,.43-.65,.59-.91,1.36-.59,1.72,.32,.35,1.11,.16,1.76-.43s.91-1.36,.59-1.72Z"/><path class="b" d="M93.72,13.02c-.44-.18-1.08,.32-1.41,1.14-.34,.81-.25,1.62,.19,1.8,.44,.18,1.08-.32,1.41-1.14,.34-.81,.25-1.62-.19-1.8Z"/><path class="b" d="M97.63,9.76c-.47-.1-1,.52-1.18,1.38-.18,.86,.05,1.64,.52,1.74,.47,.1,1-.52,1.18-1.38,.18-.86-.05-1.64-.52-1.74Z"/><path class="b" d="M100.99,6.69c-.86,.17-1.49,.68-1.4,1.16s.87,.72,1.73,.55c.86-.17,1.49-.68,1.4-1.16s-.87-.72-1.73-.55Z"/></g></svg>
